<?xml version="1.0" encoding="utf-8"?>
<!-- Generator: Adobe Illustrator 25.2.1, SVG Export Plug-In . SVG Version: 6.00 Build 0)  -->
<svg version="1.1" id="Layer_1" xmlns="http://www.w3.org/2000/svg" xmlns:xlink="http://www.w3.org/1999/xlink" x="0px" y="0px"
	 viewBox="0 0 432 216" style="enable-background:new 0 0 432 216;" xml:space="preserve">
<style type="text/css">
	.st0{fill:none;stroke:#000000;stroke-miterlimit:10;}
</style>
<path class="st0" d="M72.63,71.68c1.24-13.34,16.59-33.12,35.44-35.6v8.79h9V36.2c10.91,1.65,19.23,8.23,21.52,10.04
	c7.9,6.25,10.12,11.41,20.36,29.38c10.76,18.87,18.24,30.82,24.99,39.9c5.46-22.97,14.85-42.36,26.29-56.26
	c12.22-14.86,26.78-23.45,41.38-23.45c35.85,0,70.68,49.38,72.65,117.53c2.72,1.54,6.59,3.28,11.47,4.11
	c11.28,1.92,20.31-2.29,23.71-4.11c-3.29,4.43-8.41,10.34-15.85,15.89c-7.54,5.62-14.75,8.85-19.98,10.73h-35.87v-12.69h-9v12.69
	h-62.69v-12.69h-9v12.69l-27.46-0.25c-9.96-12.7-5.66-14.18-25.58-52.31c-3.4-6.5-18.49-28.03-24.15-38.69
	c-4.09-7.71-8.3,0.35-21.64,0.29c-5.91-0.03-29.41-0.14-34.51-10.18C72.71,76.84,72.38,74.4,72.63,71.68z"/>
</svg>
